<svg xmlns="http://www.w3.org/2000/svg" width="5891" height="4514" viewBox="0 0 5891 4514">
  <metadata><?xpacket begin="﻿" id="W5M0MpCehiHzreSzNTczkc9d"?>
<x:xmpmeta xmlns:x="adobe:ns:meta/" x:xmptk="Adobe XMP Core 5.6-c142 79.160924, 2017/07/13-01:06:39        ">
   <rdf:RDF xmlns:rdf="http://www.w3.org/1999/02/22-rdf-syntax-ns#">
      <rdf:Description rdf:about=""/>
   </rdf:RDF>
</x:xmpmeta>
                                                                                                    
                                                                                                    
                                                                                                    
                                                                                                    
                                                                                                    
                                                                                                    
                                                                                                    
                                                                                                    
                                                                                                    
                                                                                                    
                                                                                                    
                                                                                                    
                                                                                                    
                                                                                                    
                                                                                                    
                                                                                                    
                                                                                                    
                                                                                                    
                                                                                                    
                                                                                                    
                           
<?xpacket end="w"?></metadata>
<defs>
    <style>
      .cls-1 {
        fill-rule: evenodd;
      }
    </style>
  </defs>
  <path id="Прямоугольник_1_копия_2" data-name="Прямоугольник 1 копия 2" class="cls-1" d="M3532.66,4474.01l-1198.16-2.14H1324.29c-122.11.45-111.64-.36-113.15-122.65,35.71-227.45,206.06-697.28,1000.96-759.54,89.33-6.16,122.4-33.47,122.29-132.35-0.33-517.74-.37-2094.31-0.37-2539.852,0-98.619.48-126.19-125.05-113.2C1162.76,885.765,988.04,3719.18,962.109,4348.76c-7.309,121.8,1.753,123.11-127.112,123.11-170.449,0-476.559-.34-645.326,0-114.1.23-121.139-4.22-119.517-122.11C79.993,3635.5,229.764,30.112,2334.5,30.112c109.08,2.624,2800.56.6,3416.53,0.1,110.65-.1,136.68-10.6,106.08,120.822-62.3,242.782-332.29,766.631-1502.22,768.051-6.35,2054.183,0,2666.493,0,2666.493C4354.89,4473.71,3532.66,4474.01,3532.66,4474.01Zm-291.74-3666.6h230.29a7,7,0,0,1,7,7V3576.37a7.008,7.008,0,0,1-7,7H3240.92a7.008,7.008,0,0,1-7-7V814.412A7,7,0,0,1,3240.92,807.412Z"/>
</svg>
